# xmcd
#
# Track frame offsets: 
#        150
#        28199
#        59502
#        71952
#        123433
#        160861
#        192493
#
# Disc length: 3708 seconds
#
# Revision: 0
# Processed by: cddbd v1.5.2PL0 Copyright (c) Steve Scherf et al.
# Submitted via: ExactAudioCopy v1.3
#
DISCID=690e7a07
DTITLE=John Sinclair - Let's Go Get Em
DYEAR=2011
DGENRE=Blues
TTITLE0=that old man
TTITLE1=humphf
TTITLE2=Soul Eyes
TTITLE3=Scuze Me While I Kiss the Sky
TTITLE4=Smells Like Sulfur Here
TTITLE5=Pontiac's Speech to the Whiteman
TTITLE6=We Love Big Chief
EXTD=
EXTT0=
EXTT1=
EXTT2=
EXTT3=
EXTT4=
EXTT5=
EXTT6=
PLAYORDER=
